<svg width="23" height="28" viewBox="0 0 23 28" fill="none" xmlns="http://www.w3.org/2000/svg">
<path d="M21.5606 10.8889C21.5606 15.4399 18.9039 19.6004 16.1722 22.6648C14.8137 24.1887 13.4538 25.4224 12.4332 26.2751C11.9233 26.7011 11.499 27.0312 11.2033 27.2541C11.1395 27.3022 11.0817 27.3453 11.0303 27.3832C10.9789 27.3453 10.9211 27.3022 10.8573 27.2541C10.5616 27.0312 10.1373 26.7011 9.62739 26.2751C8.60683 25.4224 7.2469 24.1887 5.88839 22.6648C3.15675 19.6004 0.5 15.4399 0.5 10.8889C0.5 5.15733 5.20848 0.5 11.0303 0.5C16.8521 0.5 21.5606 5.15733 21.5606 10.8889Z" fill="#C2B3DF" stroke="#667D7C"/>
<rect x="5" y="11" width="12" height="2" fill="white"/>
<rect x="10" y="18" width="12" height="2" transform="rotate(-90 10 18)" fill="white"/>
</svg>
