<svg width="60" height="60" viewBox="0 0 60 60" fill="none" xmlns="http://www.w3.org/2000/svg">
<path d="M30 60C46.5685 60 60 46.5685 60 30C60 13.4315 46.5685 0 30 0C13.4315 0 0 13.4315 0 30C0 46.5685 13.4315 60 30 60Z" fill="#667D7C"/>
<path d="M44.3899 43.8772C34.7422 41.2808 24.5786 41.2808 14.9309 43.8772C13.842 44.1701 12.7182 43.5398 12.3867 42.4623C10.5111 36.3655 8.63555 30.2689 6.76 24.1722C6.41091 23.0372 7.07091 21.8425 8.21495 21.5241C22.245 17.6206 37.0762 17.6206 51.1063 21.5241C52.2503 21.8423 52.9103 23.0372 52.5612 24.1722C50.6857 30.2689 48.8101 36.3655 46.9345 42.4623C46.6026 43.5398 45.4786 44.1701 44.3899 43.8772Z" fill="white"/>
<path d="M51.1061 21.5241C44.0693 19.5665 36.8313 18.5912 29.5938 18.5972V41.9305C34.5687 41.9247 39.5445 42.5734 44.3897 43.8772C45.4786 44.1701 46.6024 43.5398 46.934 42.4623C48.8095 36.3655 50.6851 30.2689 52.5606 24.1722C52.9101 23.0372 52.2501 21.8423 51.1061 21.5241Z" fill="#EDECEB"/>
<path d="M11.2109 38.6402C11.6029 39.9142 11.9948 41.1881 12.3867 42.4623C12.7182 43.5398 13.8423 44.1703 14.9309 43.8772C24.5786 41.2808 34.7423 41.2808 44.3899 43.8772C45.4788 44.1701 46.6027 43.5398 46.9342 42.4623C47.3261 41.1883 47.718 39.9142 48.1099 38.6402C36.0095 35.5113 23.3113 35.5113 11.2109 38.6402Z" fill="#9ADAD9"/>
<path d="M29.5942 36.294V41.9303C34.5692 41.9245 39.5447 42.5732 44.3902 43.877C45.4791 44.1699 46.6029 43.5396 46.9344 42.4621C47.3264 41.1881 47.7183 39.914 48.1102 38.64C42.0385 37.0701 35.8161 36.2885 29.5942 36.294Z" fill="#80B7B4"/>
<path d="M34.139 27.978H31.1535V24.9927H28.1681V27.978H25.1826V30.9634H28.1681V33.9489H31.1535V30.9634H34.139V27.978Z" fill="#F86E51"/>
<path d="M31.1534 27.978V24.9927H29.5942V33.9489H31.1534V30.9634H34.1389V27.978H31.1534Z" fill="#C63C22"/>
</svg>
