<svg width="160" height="160" viewBox="0 0 160 160" fill="none" xmlns="http://www.w3.org/2000/svg">
<rect width="160" height="160" rx="10" fill="#667D7C"/>
<mask id="mask0" mask-type="alpha" maskUnits="userSpaceOnUse" x="0" y="0" width="160" height="160">
<rect width="160" height="160" rx="10" fill="#A5B9BD"/>
</mask>
<g mask="url(#mask0)">
<path d="M98.9708 118.279C93.0796 117.403 86.6274 116.912 79.8946 116.912C73.232 116.912 66.8498 117.368 61.0288 118.244L79.9998 150.05L98.9708 118.279Z" fill="#A5B9BD"/>
<path d="M18.5573 134.235C17.4001 138.513 6.10269 166.578 5.01562 174.398C19.989 186.636 59.1704 174 80.035 174C100.9 174 140.046 186.636 155.054 174.398C153.932 166.578 142.635 138.478 141.513 134.235C139.584 127.046 116.75 120.909 99.041 118.279L79.9999 150.05L61.0289 118.244C43.2853 120.839 20.486 127.011 18.5573 134.235Z" fill="#1E2A32"/>
<path d="M93.6411 98.9226H66.3594C70.6024 111.757 66.71 117.613 66.71 117.613L76.1429 122.137H83.8576L93.2905 117.613C93.2905 117.613 89.3981 111.757 93.6411 98.9226Z" fill="#A5B9BD"/>
<path d="M107.983 61.4365C107.983 29.035 95.4645 21.601 80.0002 21.601C64.5709 21.601 52.0171 29.035 52.0171 61.4365C52.0171 72.4123 53.9808 81.0036 56.9264 87.6312C63.3786 102.219 74.5649 107.303 80.0002 107.303C85.4355 107.303 96.5866 102.219 103.074 87.6312C106.02 81.0036 107.983 72.4123 107.983 61.4365Z" fill="#A5B9BD"/>
<path d="M80 21.601C62.9226 21.601 51 30.578 51 62.9794C51 62.9794 71.5 45.5 80 35.1016V21.601Z" fill="#1E2A32"/>
<path d="M79.9648 21.601C97.0422 21.601 109 30.578 109 62.9794C109 62.9794 87.5 44 79.9999 35.1016L79.9648 21.601Z" fill="#1E2A32"/>
<path d="M106.3 18.4801H53.7002V40.572H106.3V18.4801Z" fill="#A5B9BD"/>
<path d="M80.0001 37.8368C84.5125 37.8368 88.1706 34.1788 88.1706 29.6663C88.1706 25.1539 84.5125 21.4958 80.0001 21.4958C75.4876 21.4958 71.8296 25.1539 71.8296 29.6663C71.8296 34.1788 75.4876 37.8368 80.0001 37.8368Z" fill="#1E2A32"/>
<path d="M85.6455 28.1584H74.3892V31.1391H85.6455V28.1584Z" fill="#A5B9BD"/>
<path d="M81.4728 24.0557H78.4922V35.312H81.4728V24.0557Z" fill="#A5B9BD"/>
<path d="M66.7099 117.613C66.7099 117.613 61.5201 130.482 79.895 130.482C98.2698 130.482 93.2904 117.613 93.2904 117.613L79.895 111.161L66.7099 117.613Z" fill="#A5B9BD"/>
<path d="M49.352 72.8332C50.8598 81.67 52.7184 82.0557 55.4185 81.5999L52.5781 62.3834C49.878 62.8744 47.8441 64.0315 49.352 72.8332Z" fill="#A5B9BD"/>
<path d="M107.492 62.4185L104.652 81.6349C107.317 82.0908 109.211 81.67 110.718 72.8683C112.191 64.0315 110.157 62.8743 107.492 62.4185Z" fill="#A5B9BD"/>
<path d="M54.2963 64.2068C54.1561 63.26 54.121 62.3834 54.1561 61.7171C54.1911 60.7002 54.3314 60.069 54.3314 60.069L51.0352 61.2963C51.0352 61.7872 51.0352 62.3132 51.0352 62.8042C51.0352 62.8042 51.3858 62.699 52.017 62.4886C51.982 62.4886 51.9469 62.5236 51.9118 62.5236C52.3677 63.2951 52.9287 64.4873 53.4898 66.2056C53.4547 66.2056 54.7522 67.1524 54.2963 64.2068Z" fill="#1E2A32"/>
<path d="M105.879 61.7171C105.914 62.4184 105.879 63.26 105.739 64.2068C105.283 67.1524 106.545 66.2056 106.545 66.2056C107.071 64.4523 107.668 63.2951 108.088 62.5236C108.649 62.734 108.965 62.8042 108.965 62.8042C108.965 62.2782 108.965 61.7872 108.965 61.2963L105.704 60.069C105.704 60.069 105.844 60.7002 105.879 61.7171Z" fill="#1E2A32"/>
</g>
</svg>
