<svg width="171" height="171" viewBox="0 0 171 171" fill="none" xmlns="http://www.w3.org/2000/svg">
<path d="M85.5 171C132.72 171 171 132.72 171 85.5C171 38.2797 132.72 0 85.5 0C38.2797 0 0 38.2797 0 85.5C0 132.72 38.2797 171 85.5 171Z" fill="#A5B9BD"/>
<path d="M126.512 125.05C99.0158 117.65 70.0494 117.65 42.5535 125.05C39.4502 125.885 36.2473 124.089 35.3025 121.017C29.9571 103.642 24.6118 86.2664 19.2665 68.8906C18.2715 65.656 20.1525 62.251 23.4131 61.3436C63.3988 50.2188 105.668 50.2188 145.653 61.3436C148.914 62.2504 150.795 65.656 149.8 68.8906C144.455 86.2664 139.109 103.642 133.764 121.017C132.818 124.089 129.614 125.885 126.512 125.05Z" fill="white"/>
<path d="M145.653 61.3436C125.598 55.7645 104.97 52.9848 84.3428 53.002V119.502C98.5214 119.485 112.702 121.334 126.511 125.05C129.615 125.885 132.818 124.089 133.762 121.017C139.108 103.642 144.453 86.2664 149.798 68.8906C150.794 65.656 148.913 62.2504 145.653 61.3436Z" fill="#EDECEB"/>
<path d="M31.9517 110.125C33.0686 113.755 34.1856 117.386 35.3026 121.017C36.2474 124.089 39.4509 125.885 42.5537 125.05C70.0495 117.65 99.0159 117.65 126.512 125.05C129.615 125.885 132.818 124.089 133.763 121.017C134.88 117.387 135.997 113.755 137.114 110.125C102.628 101.207 66.4378 101.207 31.9517 110.125Z" fill="#9ADAD9"/>
<path d="M84.3433 103.438V119.501C98.5219 119.485 112.702 121.334 126.512 125.049C129.615 125.884 132.818 124.088 133.763 121.017C134.88 117.386 135.997 113.755 137.114 110.124C119.809 105.65 102.075 103.422 84.3433 103.438Z" fill="#80B7B4"/>
<path d="M97.2957 79.7373H88.7871V71.2293H80.2786V79.7373H71.77V88.2458H80.2786V96.7544H88.7871V88.2458H97.2957V79.7373Z" fill="#F86E51"/>
<path d="M88.787 79.7373V71.2293H84.3433V96.7544H88.787V88.2458H97.2955V79.7373H88.787Z" fill="#C63C22"/>
</svg>
