<svg width="181" height="181" viewBox="0 0 181 181" fill="none" xmlns="http://www.w3.org/2000/svg">
<g clip-path="url(#clip0)">
<mask id="mask0" mask-type="alpha" maskUnits="userSpaceOnUse" x="0" y="0" width="181" height="181">
<path d="M90.5009 0C40.5682 0 0.0898438 40.4747 0.0898438 90.4111C0.0898438 140.34 40.5682 180.818 90.5009 180.818C140.431 180.818 180.91 140.34 180.91 90.4111C180.91 40.4744 140.431 0 90.5009 0Z" fill="#362340"/>
</mask>
<g mask="url(#mask0)">
<path d="M90.2306 109.791C89.5258 109.791 88.9551 110.362 88.9551 111.066V130.066C88.9551 130.771 89.5258 131.342 90.2306 131.342C90.9351 131.342 91.5062 130.771 91.5062 130.066V111.066C91.5062 110.362 90.9347 109.791 90.2306 109.791Z" fill="#707070"/>
<path d="M102.566 126.734C72.9061 126.225 39.4429 122.904 39.4429 125.134C39.4429 123.352 66.9446 126.98 91.9314 126.947V210.982C110.239 210.697 127.225 204.975 141.346 195.353V125.134C141.346 123.733 121.204 127.053 102.566 126.734Z" fill="#F7F9F9"/>
<path d="M39.4429 125.134V195.207C53.972 205.168 71.5541 211 90.5009 211C90.9795 211 91.8195 210.989 92.2962 210.982V126.947C67.3091 126.98 39.4429 123.352 39.4429 125.134Z" fill="white"/>
<path d="M141.346 125.134C141.346 123.705 115.6 127.413 96.5551 125.37C61.3262 121.593 39.4433 122.933 39.4433 125.134C39.4433 125.134 36.2789 136.479 39.3275 137.156C43.1559 138.007 41.5961 133.611 44.0069 134.887C47.4505 136.71 53.3096 140.035 62.3696 139.671C67.8985 139.448 64.0704 146.254 67.4735 146.68C70.8763 147.105 69.1747 139.873 72.1515 139.522C101.454 136.067 128.411 133.59 133.903 145.947C138.23 155.684 143.19 143.962 144.112 139.14C145.033 134.32 141.346 125.134 141.346 125.134Z" fill="#F2F2F2"/>
<path d="M108.574 57.6014C108.379 64.4536 106.253 70.1618 100.515 75.8692C100.515 75.8692 107.873 56.6405 100.085 43.7323C91.7991 30.0002 79.7966 25 79.7966 25C79.7966 25 80.6661 42.6384 76.1533 54.3097C70.8311 68.0714 60 77.1349 60 91.4255C60 106.104 73.4303 117.992 90 118C106.576 117.992 120 106.104 120 91.4255C120 79.5592 115.021 67.8338 108.574 57.6014Z" fill="#E17A2D"/>
<path d="M83.8596 62C83.8596 62 84.3355 72.6214 81.8616 79.6492C78.9425 87.9358 73 93.393 73 101.996C73 110.837 80.3674 117.995 89.4555 118C98.5507 117.995 105.238 110.81 105.914 101.996C107.604 79.8598 83.8596 62 83.8596 62Z" fill="#FCEF79"/>
<path d="M85.9111 82C85.9111 82 86.2148 88.8288 84.6393 93.3452C82.7829 98.6715 79 102.179 79 107.713C79 113.394 83.6893 117.994 89.4721 118C95.2599 117.994 99.5152 113.378 99.945 107.713C101.022 93.4833 85.9111 82 85.9111 82Z" fill="white"/>
</g>
</g>
<defs>
<clipPath id="clip0">
<path d="M0 0H181V181H0V0Z" fill="white"/>
</clipPath>
</defs>
</svg>
