<svg width="60" height="61" viewBox="0 0 60 61" fill="none" xmlns="http://www.w3.org/2000/svg">
<circle cx="30" cy="31" r="30" fill="#667D7C"/>
<mask id="mask0" mask-type="alpha" maskUnits="userSpaceOnUse" x="0" y="0" width="60" height="60">
<circle cx="30" cy="30" r="30" fill="#667D7C"/>
</mask>
<g mask="url(#mask0)">
<path d="M6.55638 35.528C6.55638 36.28 6.72438 36.8 7.06038 37.088C7.41238 37.36 8.01238 37.496 8.86038 37.496V38C7.13238 37.936 6.02838 37.904 5.54838 37.904C5.10038 37.904 4.06038 37.928 2.42838 37.976L1.85238 38V37.496C2.70038 37.496 3.33238 37.352 3.74838 37.064C4.18038 36.776 4.39638 36.264 4.39638 35.528V29.72C4.39638 28.952 4.31638 28.392 4.15638 28.04C3.99638 27.672 3.72438 27.432 3.34038 27.32C2.97238 27.192 2.39638 27.128 1.61238 27.128V26.6C2.78038 26.568 3.74038 26.464 4.49238 26.288C5.26038 26.112 5.94838 25.808 6.55638 25.376V35.528ZM20.3592 36.824C20.1512 36.776 19.3512 36.736 17.9592 36.704V41.384H16.0392V36.704H9.77519V36.2L17.5752 25.304H17.9592V35.096H18.2472C18.6792 35.096 18.9992 35.064 19.2072 35C19.4312 34.92 19.5832 34.8 19.6632 34.64C19.7432 34.464 19.8072 34.208 19.8552 33.872H20.2632C20.2632 35.216 20.2952 36.2 20.3592 36.824ZM16.0392 35.096V28.232L11.1912 35.096H16.0392ZM28.5466 25.304C29.6666 25.304 30.6666 25.568 31.5466 26.096C32.4266 26.608 33.1146 27.344 33.6106 28.304C34.1066 29.264 34.3546 30.368 34.3546 31.616C34.3546 32.896 34.0986 34.048 33.5866 35.072C33.0746 36.08 32.3546 36.88 31.4266 37.472C30.5146 38.048 29.4666 38.336 28.2826 38.336C27.1786 38.336 26.1866 38.08 25.3066 37.568C24.4266 37.04 23.7306 36.296 23.2186 35.336C22.7226 34.376 22.4746 33.264 22.4746 32C22.4746 30.736 22.7226 29.6 23.2186 28.592C23.7306 27.568 24.4426 26.768 25.3546 26.192C26.2826 25.6 27.3466 25.304 28.5466 25.304ZM28.3306 25.736C27.6426 25.736 27.0266 25.984 26.4826 26.48C25.9546 26.96 25.5386 27.672 25.2346 28.616C24.9466 29.544 24.8026 30.648 24.8026 31.928C24.8026 33.96 25.1466 35.464 25.8346 36.44C26.5226 37.416 27.4106 37.904 28.4986 37.904C29.1866 37.904 29.7946 37.656 30.3226 37.16C30.8666 36.664 31.2826 35.952 31.5706 35.024C31.8746 34.08 32.0266 32.968 32.0266 31.688C32.0266 29.672 31.6826 28.176 30.9946 27.2C30.3066 26.224 29.4186 25.736 28.3306 25.736ZM38.6412 35.264C39.2652 35.264 39.7372 35.52 40.0572 36.032C40.3292 36.464 40.4652 36.992 40.4652 37.616C40.4652 38.416 40.2572 39.136 39.8412 39.776C39.4412 40.416 38.8252 40.928 37.9932 41.312L37.7772 40.88C38.2732 40.672 38.6972 40.344 39.0492 39.896C39.4172 39.448 39.6012 38.992 39.6012 38.528C39.6012 38.336 39.5772 38.168 39.5292 38.024C39.2732 38.232 38.9772 38.336 38.6412 38.336C38.2092 38.336 37.8412 38.2 37.5372 37.928C37.2492 37.64 37.1052 37.264 37.1052 36.8C37.1052 36.368 37.2492 36.008 37.5372 35.72C37.8412 35.416 38.2092 35.264 38.6412 35.264ZM49.891 24.44C49.891 26.072 49.923 27.24 49.987 27.944C49.651 27.864 48.539 27.824 46.651 27.824H44.107L43.819 32.456C44.267 32.232 44.699 32.056 45.115 31.928C45.531 31.8 46.035 31.736 46.627 31.736C48.019 31.736 49.075 32.08 49.795 32.768C50.515 33.44 50.875 34.328 50.875 35.432C50.875 36.616 50.483 37.672 49.699 38.6C48.931 39.544 47.931 40.272 46.699 40.784C45.483 41.296 44.235 41.552 42.955 41.552V41.12C43.931 41.104 44.843 40.888 45.691 40.472C46.555 40.056 47.251 39.44 47.779 38.624C48.323 37.808 48.595 36.824 48.595 35.672C48.595 34.664 48.331 33.88 47.803 33.32C47.275 32.744 46.531 32.456 45.571 32.456C45.187 32.456 44.859 32.488 44.587 32.552C44.315 32.616 43.987 32.72 43.603 32.864L43.363 32.72L43.819 25.568C44.139 25.632 44.571 25.664 45.115 25.664H47.827C48.259 25.664 48.579 25.632 48.787 25.568C49.011 25.488 49.163 25.368 49.243 25.208C49.323 25.032 49.387 24.776 49.435 24.44H49.891ZM59.1799 28.376C60.0759 29.032 60.7719 29.584 61.2679 30.032C61.7639 30.464 62.1879 30.992 62.5399 31.616C62.9079 32.24 63.0919 32.952 63.0919 33.752C63.0919 34.648 62.8679 35.448 62.4199 36.152C61.9719 36.84 61.3559 37.376 60.5719 37.76C59.7879 38.144 58.8999 38.336 57.9079 38.336C56.5479 38.336 55.4039 37.992 54.4759 37.304C53.5479 36.6 53.0839 35.6 53.0839 34.304C53.0839 33.2 53.4359 32.216 54.1399 31.352C54.8439 30.488 55.7719 29.768 56.9239 29.192C55.9479 28.392 55.1959 27.632 54.6679 26.912C54.1399 26.192 53.8759 25.36 53.8759 24.416C53.8759 23.68 54.0679 23.032 54.4519 22.472C54.8359 21.896 55.3639 21.456 56.0359 21.152C56.7079 20.832 57.4519 20.672 58.2679 20.672C59.4039 20.672 60.3479 20.96 61.0999 21.536C61.8519 22.112 62.2279 22.92 62.2279 23.96C62.2279 24.824 61.9639 25.616 61.4359 26.336C60.9079 27.056 60.1559 27.736 59.1799 28.376ZM58.0039 21.104C57.3479 21.104 56.8039 21.336 56.3719 21.8C55.9559 22.264 55.7479 22.888 55.7479 23.672C55.7479 24.584 56.0039 25.368 56.5159 26.024C57.0439 26.664 57.8119 27.36 58.8199 28.112C59.8119 27.168 60.3079 25.888 60.3079 24.272C60.3079 23.312 60.1079 22.544 59.7079 21.968C59.3079 21.392 58.7399 21.104 58.0039 21.104ZM58.0519 37.904C58.8999 37.904 59.6119 37.624 60.1879 37.064C60.7639 36.504 61.0519 35.736 61.0519 34.76C61.0519 34.008 60.8759 33.336 60.5239 32.744C60.1879 32.136 59.7799 31.616 59.2999 31.184C58.8359 30.752 58.1639 30.184 57.2839 29.48C55.8919 30.488 55.1959 31.976 55.1959 33.944C55.1959 35.08 55.4279 36.024 55.8919 36.776C56.3559 37.528 57.0759 37.904 58.0519 37.904ZM70.4727 25.304C72.0087 25.304 73.2087 25.864 74.0727 26.984C74.9367 28.088 75.3687 29.64 75.3687 31.64C75.3687 33.672 74.9367 35.4 74.0727 36.824C73.2247 38.248 72.1767 39.336 70.9287 40.088C69.6967 40.856 68.4647 41.344 67.2327 41.552L67.1367 41.072C68.5927 40.656 69.8247 39.968 70.8327 39.008C71.8407 38.048 72.5127 36.504 72.8487 34.376C72.4807 35 71.9847 35.456 71.3607 35.744C70.7367 36.016 70.1207 36.152 69.5127 36.152C68.7447 36.152 68.0327 35.944 67.3767 35.528C66.7207 35.112 66.1927 34.512 65.7927 33.728C65.3927 32.928 65.1927 31.992 65.1927 30.92C65.1927 29.752 65.4247 28.744 65.8887 27.896C66.3687 27.048 67.0087 26.408 67.8087 25.976C68.6087 25.528 69.4967 25.304 70.4727 25.304ZM70.1127 35.456C70.6567 35.456 71.1927 35.304 71.7207 35C72.2647 34.696 72.6727 34.208 72.9447 33.536C73.0087 33.024 73.0407 32.408 73.0407 31.688C73.0407 29.56 72.7687 28.048 72.2247 27.152C71.6807 26.24 71.0167 25.784 70.2327 25.784C69.4487 25.784 68.8007 26.192 68.2887 27.008C67.7767 27.824 67.5207 29.072 67.5207 30.752C67.5207 32.384 67.7607 33.576 68.2407 34.328C68.7207 35.08 69.3447 35.456 70.1127 35.456Z" fill="white"/>
</g>
</svg>
