<svg width="32" height="18" viewBox="0 0 32 18" fill="none" xmlns="http://www.w3.org/2000/svg">
<path d="M0.25 1.59375C0.25 1.30208 0.354167 1.05208 0.5625 0.84375C0.770833 0.635417 1.02083 0.53125 1.3125 0.53125C1.60417 0.53125 1.85417 0.635417 2.0625 0.84375L16.1875 14.9688L30.0938 1.0625C30.3021 0.854167 30.5521 0.75 30.8438 0.75C31.1354 0.75 31.3854 0.854167 31.5938 1.0625C31.8021 1.27083 31.9062 1.52083 31.9062 1.8125C31.9062 2.10417 31.8021 2.35417 31.5938 2.5625L16.9375 17.2188C16.7292 17.4271 16.4792 17.5312 16.1875 17.5312C15.8958 17.5312 15.6458 17.4271 15.4375 17.2188L0.5625 2.375C0.520833 2.33333 0.484375 2.28646 0.453125 2.23438C0.421875 2.18229 0.395833 2.13021 0.375 2.07812L0.3125 1.92188L0.265625 1.76562L0.25 1.59375Z" fill="#A5B9BD"/>
</svg>
