<svg width="66" height="51" viewBox="0 0 66 51" fill="none" xmlns="http://www.w3.org/2000/svg">
<path d="M38.9296 42.4474H38.6172L38.4802 42.7281L34.966 49.9296L30.85 42.7L30.7062 42.4474H30.4155H14C8.7533 42.4474 4.5 38.1941 4.5 32.9474V10C4.5 4.75329 8.75329 0.5 14 0.5H56C61.2467 0.5 65.5 4.7533 65.5 10V32.9474C65.5 38.1941 61.2467 42.4474 56 42.4474H38.9296Z" fill="#D9CDF0" stroke="#667D7C"/>
<path d="M49.9006 26C49.8205 26 49.7504 25.9674 49.6903 25.9022C49.6302 25.8371 49.6001 25.7589 49.6001 25.6676C49.6001 25.5764 49.6287 25.4982 49.686 25.433L53.6102 20.9658L49.7461 16.5767C49.7117 16.5311 49.6874 16.479 49.6731 16.4203C49.6588 16.3617 49.6588 16.3047 49.6731 16.2493C49.6874 16.1939 49.7117 16.1434 49.7461 16.0978C49.8033 16.0326 49.8735 16 49.9565 16C50.0395 16 50.1096 16.0326 50.1668 16.0978L54.2285 20.7312C54.2571 20.7638 54.2786 20.8012 54.2929 20.8436C54.3072 20.886 54.3144 20.9283 54.3144 20.9707C54.3144 21.013 54.3072 21.0538 54.2929 21.0929C54.2786 21.132 54.2571 21.1678 54.2285 21.2004L50.1067 25.9022C50.0781 25.9348 50.0452 25.9593 50.008 25.9756C49.9708 25.9919 49.935 26 49.9006 26Z" fill="#667D7C"/>
</svg>
